<?xml version="1.0" encoding="UTF-8" standalone="no"?>
<!DOCTYPE svg PUBLIC "-//W3C//DTD SVG 1.1//EN"
 "http://www.w3.org/Graphics/SVG/1.1/DTD/svg11.dtd">
<!-- Generated by graphviz version 2.43.0 (0)
 -->
<!-- Title: %3 Pages: 1 -->
<svg width="2055pt" height="548pt"
 viewBox="0.00 0.00 2055.23 548.00" xmlns="http://www.w3.org/2000/svg" xmlns:xlink="http://www.w3.org/1999/xlink">
<g id="graph0" class="graph" transform="scale(1 1) rotate(0) translate(4 544)">
<title>%3</title>
<polygon fill="white" stroke="transparent" points="-4,4 -4,-544 2051.23,-544 2051.23,4 -4,4"/>
<!-- [root] azurerm_linux_virtual_machine.mtc&#45;vm (expand) -->
<g id="node1" class="node">
<title>[root] azurerm_linux_virtual_machine.mtc&#45;vm (expand)</title>
<polygon fill="none" stroke="black" points="929.73,-396 632.73,-396 632.73,-360 929.73,-360 929.73,-396"/>
<text text-anchor="middle" x="781.23" y="-374.3" font-family="Times,serif" font-size="14.00">azurerm_linux_virtual_machine.mtc&#45;vm</text>
</g>
<!-- [root] azurerm_network_interface.mtc&#45;nic (expand) -->
<g id="node2" class="node">
<title>[root] azurerm_network_interface.mtc&#45;nic (expand)</title>
<polygon fill="none" stroke="black" points="921.73,-324 652.73,-324 652.73,-288 921.73,-288 921.73,-324"/>
<text text-anchor="middle" x="787.23" y="-302.3" font-family="Times,serif" font-size="14.00">azurerm_network_interface.mtc&#45;nic</text>
</g>
<!-- [root] azurerm_linux_virtual_machine.mtc&#45;vm (expand)&#45;&gt;[root] azurerm_network_interface.mtc&#45;nic (expand) -->
<g id="edge1" class="edge">
<title>[root] azurerm_linux_virtual_machine.mtc&#45;vm (expand)&#45;&gt;[root] azurerm_network_interface.mtc&#45;nic (expand)</title>
<path fill="none" stroke="black" d="M782.72,-359.7C783.38,-351.98 784.17,-342.71 784.91,-334.11"/>
<polygon fill="black" stroke="black" points="788.4,-334.37 785.77,-324.1 781.43,-333.77 788.4,-334.37"/>
</g>
<!-- [root] var.host_os -->
<g id="node12" class="node">
<title>[root] var.host_os</title>
<polygon fill="none" stroke="black" points="1030.23,-324 940.23,-324 940.23,-288 1036.23,-288 1036.23,-318 1030.23,-324"/>
<polyline fill="none" stroke="black" points="1030.23,-324 1030.23,-318 "/>
<polyline fill="none" stroke="black" points="1036.23,-318 1030.23,-318 "/>
<text text-anchor="middle" x="988.23" y="-302.3" font-family="Times,serif" font-size="14.00">var.host_os</text>
</g>
<!-- [root] azurerm_linux_virtual_machine.mtc&#45;vm (expand)&#45;&gt;[root] var.host_os -->
<g id="edge2" class="edge">
<title>[root] azurerm_linux_virtual_machine.mtc&#45;vm (expand)&#45;&gt;[root] var.host_os</title>
<path fill="none" stroke="black" d="M831.61,-359.97C861.41,-349.89 899.28,-337.08 930.31,-326.59"/>
<polygon fill="black" stroke="black" points="931.78,-329.79 940.13,-323.27 929.54,-323.15 931.78,-329.79"/>
</g>
<!-- [root] azurerm_public_ip.mtc&#45;ip (expand) -->
<g id="node5" class="node">
<title>[root] azurerm_public_ip.mtc&#45;ip (expand)</title>
<polygon fill="none" stroke="black" points="1161.73,-252 964.73,-252 964.73,-216 1161.73,-216 1161.73,-252"/>
<text text-anchor="middle" x="1063.23" y="-230.3" font-family="Times,serif" font-size="14.00">azurerm_public_ip.mtc&#45;ip</text>
</g>
<!-- [root] azurerm_network_interface.mtc&#45;nic (expand)&#45;&gt;[root] azurerm_public_ip.mtc&#45;ip (expand) -->
<g id="edge3" class="edge">
<title>[root] azurerm_network_interface.mtc&#45;nic (expand)&#45;&gt;[root] azurerm_public_ip.mtc&#45;ip (expand)</title>
<path fill="none" stroke="black" d="M854.4,-287.97C894.13,-277.89 944.62,-265.08 986,-254.59"/>
<polygon fill="black" stroke="black" points="986.93,-257.96 995.77,-252.11 985.21,-251.18 986.93,-257.96"/>
</g>
<!-- [root] azurerm_subnet.mtc_subnet (expand) -->
<g id="node7" class="node">
<title>[root] azurerm_subnet.mtc_subnet (expand)</title>
<polygon fill="none" stroke="black" points="1398.73,-252 1179.73,-252 1179.73,-216 1398.73,-216 1398.73,-252"/>
<text text-anchor="middle" x="1289.23" y="-230.3" font-family="Times,serif" font-size="14.00">azurerm_subnet.mtc_subnet</text>
</g>
<!-- [root] azurerm_network_interface.mtc&#45;nic (expand)&#45;&gt;[root] azurerm_subnet.mtc_subnet (expand) -->
<g id="edge4" class="edge">
<title>[root] azurerm_network_interface.mtc&#45;nic (expand)&#45;&gt;[root] azurerm_subnet.mtc_subnet (expand)</title>
<path fill="none" stroke="black" d="M912.21,-287.94C984.67,-278.01 1077.94,-265.14 1169.62,-252.22"/>
<polygon fill="black" stroke="black" points="1170.22,-255.67 1179.63,-250.81 1169.24,-248.74 1170.22,-255.67"/>
</g>
<!-- [root] azurerm_network_security_group.mtc&#45;sg (expand) -->
<g id="node3" class="node">
<title>[root] azurerm_network_security_group.mtc&#45;sg (expand)</title>
<polygon fill="none" stroke="black" points="1625.23,-324 1317.23,-324 1317.23,-288 1625.23,-288 1625.23,-324"/>
<text text-anchor="middle" x="1471.23" y="-302.3" font-family="Times,serif" font-size="14.00">azurerm_network_security_group.mtc&#45;sg</text>
</g>
<!-- [root] azurerm_resource_group.mtc&#45;rg (expand) -->
<g id="node6" class="node">
<title>[root] azurerm_resource_group.mtc&#45;rg (expand)</title>
<polygon fill="none" stroke="black" points="1412.23,-108 1166.23,-108 1166.23,-72 1412.23,-72 1412.23,-108"/>
<text text-anchor="middle" x="1289.23" y="-86.3" font-family="Times,serif" font-size="14.00">azurerm_resource_group.mtc&#45;rg</text>
</g>
<!-- [root] azurerm_network_security_group.mtc&#45;sg (expand)&#45;&gt;[root] azurerm_resource_group.mtc&#45;rg (expand) -->
<g id="edge5" class="edge">
<title>[root] azurerm_network_security_group.mtc&#45;sg (expand)&#45;&gt;[root] azurerm_resource_group.mtc&#45;rg (expand)</title>
<path fill="none" stroke="black" d="M1470.83,-287.58C1469.15,-255.2 1461.07,-185.28 1423.23,-144 1410.28,-129.87 1393.07,-119.44 1375.31,-111.78"/>
<polygon fill="black" stroke="black" points="1376.58,-108.52 1366,-108.02 1373.96,-115.01 1376.58,-108.52"/>
</g>
<!-- [root] azurerm_network_security_rule.mtc&#45;dev&#45;rule (expand) -->
<g id="node4" class="node">
<title>[root] azurerm_network_security_rule.mtc&#45;dev&#45;rule (expand)</title>
<polygon fill="none" stroke="black" points="2047.23,-396 1711.23,-396 1711.23,-360 2047.23,-360 2047.23,-396"/>
<text text-anchor="middle" x="1879.23" y="-374.3" font-family="Times,serif" font-size="14.00">azurerm_network_security_rule.mtc&#45;dev&#45;rule</text>
</g>
<!-- [root] azurerm_network_security_rule.mtc&#45;dev&#45;rule (expand)&#45;&gt;[root] azurerm_network_security_group.mtc&#45;sg (expand) -->
<g id="edge6" class="edge">
<title>[root] azurerm_network_security_rule.mtc&#45;dev&#45;rule (expand)&#45;&gt;[root] azurerm_network_security_group.mtc&#45;sg (expand)</title>
<path fill="none" stroke="black" d="M1779.95,-359.97C1719.73,-349.63 1642.81,-336.44 1580.82,-325.8"/>
<polygon fill="black" stroke="black" points="1581.06,-322.29 1570.61,-324.05 1579.87,-329.19 1581.06,-322.29"/>
</g>
<!-- [root] azurerm_public_ip.mtc&#45;ip (expand)&#45;&gt;[root] azurerm_resource_group.mtc&#45;rg (expand) -->
<g id="edge7" class="edge">
<title>[root] azurerm_public_ip.mtc&#45;ip (expand)&#45;&gt;[root] azurerm_resource_group.mtc&#45;rg (expand)</title>
<path fill="none" stroke="black" d="M1077.45,-215.88C1094.47,-196.29 1124.65,-164.3 1156.23,-144 1176.81,-130.77 1201.23,-119.88 1223.49,-111.48"/>
<polygon fill="black" stroke="black" points="1224.7,-114.77 1232.89,-108.04 1222.29,-108.19 1224.7,-114.77"/>
</g>
<!-- [root] provider[&quot;registry.terraform.io/hashicorp/azurerm&quot;] -->
<g id="node11" class="node">
<title>[root] provider[&quot;registry.terraform.io/hashicorp/azurerm&quot;]</title>
<polygon fill="none" stroke="black" points="1289.23,-36 934.64,-18 1289.23,0 1643.82,-18 1289.23,-36"/>
<text text-anchor="middle" x="1289.23" y="-14.3" font-family="Times,serif" font-size="14.00">provider[&quot;registry.terraform.io/hashicorp/azurerm&quot;]</text>
</g>
<!-- [root] azurerm_resource_group.mtc&#45;rg (expand)&#45;&gt;[root] provider[&quot;registry.terraform.io/hashicorp/azurerm&quot;] -->
<g id="edge8" class="edge">
<title>[root] azurerm_resource_group.mtc&#45;rg (expand)&#45;&gt;[root] provider[&quot;registry.terraform.io/hashicorp/azurerm&quot;]</title>
<path fill="none" stroke="black" d="M1289.23,-71.7C1289.23,-63.98 1289.23,-54.71 1289.23,-46.11"/>
<polygon fill="black" stroke="black" points="1292.73,-46.1 1289.23,-36.1 1285.73,-46.1 1292.73,-46.1"/>
</g>
<!-- [root] azurerm_virtual_network.mtc&#45;vn (expand) -->
<g id="node9" class="node">
<title>[root] azurerm_virtual_network.mtc&#45;vn (expand)</title>
<polygon fill="none" stroke="black" points="1413.73,-180 1164.73,-180 1164.73,-144 1413.73,-144 1413.73,-180"/>
<text text-anchor="middle" x="1289.23" y="-158.3" font-family="Times,serif" font-size="14.00">azurerm_virtual_network.mtc&#45;vn</text>
</g>
<!-- [root] azurerm_subnet.mtc_subnet (expand)&#45;&gt;[root] azurerm_virtual_network.mtc&#45;vn (expand) -->
<g id="edge9" class="edge">
<title>[root] azurerm_subnet.mtc_subnet (expand)&#45;&gt;[root] azurerm_virtual_network.mtc&#45;vn (expand)</title>
<path fill="none" stroke="black" d="M1289.23,-215.7C1289.23,-207.98 1289.23,-198.71 1289.23,-190.11"/>
<polygon fill="black" stroke="black" points="1292.73,-190.1 1289.23,-180.1 1285.73,-190.1 1292.73,-190.1"/>
</g>
<!-- [root] azurerm_subnet_network_security_group_association.mtc&#45;sga (expand) -->
<g id="node8" class="node">
<title>[root] azurerm_subnet_network_security_group_association.mtc&#45;sga (expand)</title>
<polygon fill="none" stroke="black" points="1693.23,-396 1235.23,-396 1235.23,-360 1693.23,-360 1693.23,-396"/>
<text text-anchor="middle" x="1464.23" y="-374.3" font-family="Times,serif" font-size="14.00">azurerm_subnet_network_security_group_association.mtc&#45;sga</text>
</g>
<!-- [root] azurerm_subnet_network_security_group_association.mtc&#45;sga (expand)&#45;&gt;[root] azurerm_network_security_group.mtc&#45;sg (expand) -->
<g id="edge10" class="edge">
<title>[root] azurerm_subnet_network_security_group_association.mtc&#45;sga (expand)&#45;&gt;[root] azurerm_network_security_group.mtc&#45;sg (expand)</title>
<path fill="none" stroke="black" d="M1465.96,-359.7C1466.73,-351.98 1467.66,-342.71 1468.52,-334.11"/>
<polygon fill="black" stroke="black" points="1472.01,-334.4 1469.52,-324.1 1465.04,-333.71 1472.01,-334.4"/>
</g>
<!-- [root] azurerm_subnet_network_security_group_association.mtc&#45;sga (expand)&#45;&gt;[root] azurerm_subnet.mtc_subnet (expand) -->
<g id="edge11" class="edge">
<title>[root] azurerm_subnet_network_security_group_association.mtc&#45;sga (expand)&#45;&gt;[root] azurerm_subnet.mtc_subnet (expand)</title>
<path fill="none" stroke="black" d="M1364.36,-359.94C1343.33,-352.11 1323.06,-340.67 1308.23,-324 1293.35,-307.26 1289.12,-281.77 1288.32,-262.36"/>
<polygon fill="black" stroke="black" points="1291.81,-262.24 1288.17,-252.29 1284.81,-262.34 1291.81,-262.24"/>
</g>
<!-- [root] azurerm_virtual_network.mtc&#45;vn (expand)&#45;&gt;[root] azurerm_resource_group.mtc&#45;rg (expand) -->
<g id="edge12" class="edge">
<title>[root] azurerm_virtual_network.mtc&#45;vn (expand)&#45;&gt;[root] azurerm_resource_group.mtc&#45;rg (expand)</title>
<path fill="none" stroke="black" d="M1289.23,-143.7C1289.23,-135.98 1289.23,-126.71 1289.23,-118.11"/>
<polygon fill="black" stroke="black" points="1292.73,-118.1 1289.23,-108.1 1285.73,-118.1 1292.73,-118.1"/>
</g>
<!-- [root] data.azurerm_public_ip.mtc&#45;ip&#45;data (expand) -->
<g id="node10" class="node">
<title>[root] data.azurerm_public_ip.mtc&#45;ip&#45;data (expand)</title>
<polygon fill="none" stroke="black" points="1216.73,-396 947.73,-396 947.73,-360 1216.73,-360 1216.73,-396"/>
<text text-anchor="middle" x="1082.23" y="-374.3" font-family="Times,serif" font-size="14.00">data.azurerm_public_ip.mtc&#45;ip&#45;data</text>
</g>
<!-- [root] data.azurerm_public_ip.mtc&#45;ip&#45;data (expand)&#45;&gt;[root] azurerm_public_ip.mtc&#45;ip (expand) -->
<g id="edge13" class="edge">
<title>[root] data.azurerm_public_ip.mtc&#45;ip&#45;data (expand)&#45;&gt;[root] azurerm_public_ip.mtc&#45;ip (expand)</title>
<path fill="none" stroke="black" d="M1079.94,-359.87C1076.7,-335.67 1070.75,-291.21 1066.9,-262.39"/>
<polygon fill="black" stroke="black" points="1070.33,-261.64 1065.53,-252.19 1063.39,-262.57 1070.33,-261.64"/>
</g>
<!-- [root] output.connection_script (expand) -->
<g id="node13" class="node">
<title>[root] output.connection_script (expand)</title>
<ellipse fill="none" stroke="black" cx="198.23" cy="-450" rx="198.47" ry="18"/>
<text text-anchor="middle" x="198.23" y="-446.3" font-family="Times,serif" font-size="14.00">[root] output.connection_script (expand)</text>
</g>
<!-- [root] output.connection_script (expand)&#45;&gt;[root] azurerm_linux_virtual_machine.mtc&#45;vm (expand) -->
<g id="edge14" class="edge">
<title>[root] output.connection_script (expand)&#45;&gt;[root] azurerm_linux_virtual_machine.mtc&#45;vm (expand)</title>
<path fill="none" stroke="black" d="M312.72,-435.25C403.21,-424.39 530.32,-409.13 629.32,-397.24"/>
<polygon fill="black" stroke="black" points="629.91,-400.69 639.42,-396.03 629.07,-393.74 629.91,-400.69"/>
</g>
<!-- [root] output.mtc_ip_address (expand) -->
<g id="node14" class="node">
<title>[root] output.mtc_ip_address (expand)</title>
<ellipse fill="none" stroke="black" cx="603.23" cy="-450" rx="188.47" ry="18"/>
<text text-anchor="middle" x="603.23" y="-446.3" font-family="Times,serif" font-size="14.00">[root] output.mtc_ip_address (expand)</text>
</g>
<!-- [root] output.mtc_ip_address (expand)&#45;&gt;[root] azurerm_linux_virtual_machine.mtc&#45;vm (expand) -->
<g id="edge15" class="edge">
<title>[root] output.mtc_ip_address (expand)&#45;&gt;[root] azurerm_linux_virtual_machine.mtc&#45;vm (expand)</title>
<path fill="none" stroke="black" d="M645.42,-432.41C670.23,-422.65 701.83,-410.23 728.3,-399.81"/>
<polygon fill="black" stroke="black" points="729.78,-403 737.8,-396.08 727.22,-396.48 729.78,-403"/>
</g>
<!-- [root] output.public_ip_address (expand) -->
<g id="node15" class="node">
<title>[root] output.public_ip_address (expand)</title>
<ellipse fill="none" stroke="black" cx="1008.23" cy="-450" rx="198.76" ry="18"/>
<text text-anchor="middle" x="1008.23" y="-446.3" font-family="Times,serif" font-size="14.00">[root] output.public_ip_address (expand)</text>
</g>
<!-- [root] output.public_ip_address (expand)&#45;&gt;[root] azurerm_linux_virtual_machine.mtc&#45;vm (expand) -->
<g id="edge16" class="edge">
<title>[root] output.public_ip_address (expand)&#45;&gt;[root] azurerm_linux_virtual_machine.mtc&#45;vm (expand)</title>
<path fill="none" stroke="black" d="M955.01,-432.59C922.57,-422.58 880.87,-409.73 846.45,-399.11"/>
<polygon fill="black" stroke="black" points="847.08,-395.64 836.49,-396.04 845.02,-402.33 847.08,-395.64"/>
</g>
<!-- [root] output.public_ip_address (expand)&#45;&gt;[root] data.azurerm_public_ip.mtc&#45;ip&#45;data (expand) -->
<g id="edge17" class="edge">
<title>[root] output.public_ip_address (expand)&#45;&gt;[root] data.azurerm_public_ip.mtc&#45;ip&#45;data (expand)</title>
<path fill="none" stroke="black" d="M1026.15,-432.05C1035.35,-423.35 1046.72,-412.59 1056.82,-403.04"/>
<polygon fill="black" stroke="black" points="1059.37,-405.45 1064.23,-396.03 1054.56,-400.36 1059.37,-405.45"/>
</g>
<!-- [root] provider[&quot;registry.terraform.io/hashicorp/azurerm&quot;] (close) -->
<g id="node16" class="node">
<title>[root] provider[&quot;registry.terraform.io/hashicorp/azurerm&quot;] (close)</title>
<ellipse fill="none" stroke="black" cx="1538.23" cy="-450" rx="313.04" ry="18"/>
<text text-anchor="middle" x="1538.23" y="-446.3" font-family="Times,serif" font-size="14.00">[root] provider[&quot;registry.terraform.io/hashicorp/azurerm&quot;] (close)</text>
</g>
<!-- [root] provider[&quot;registry.terraform.io/hashicorp/azurerm&quot;] (close)&#45;&gt;[root] azurerm_linux_virtual_machine.mtc&#45;vm (expand) -->
<g id="edge18" class="edge">
<title>[root] provider[&quot;registry.terraform.io/hashicorp/azurerm&quot;] (close)&#45;&gt;[root] azurerm_linux_virtual_machine.mtc&#45;vm (expand)</title>
<path fill="none" stroke="black" d="M1368.71,-434.86C1251.42,-424.87 1091.42,-410.84 940.47,-396.11"/>
<polygon fill="black" stroke="black" points="940.38,-392.59 930.08,-395.09 939.7,-399.55 940.38,-392.59"/>
</g>
<!-- [root] provider[&quot;registry.terraform.io/hashicorp/azurerm&quot;] (close)&#45;&gt;[root] azurerm_network_security_rule.mtc&#45;dev&#45;rule (expand) -->
<g id="edge19" class="edge">
<title>[root] provider[&quot;registry.terraform.io/hashicorp/azurerm&quot;] (close)&#45;&gt;[root] azurerm_network_security_rule.mtc&#45;dev&#45;rule (expand)</title>
<path fill="none" stroke="black" d="M1618.18,-432.59C1668.48,-422.26 1733.6,-408.9 1786.21,-398.09"/>
<polygon fill="black" stroke="black" points="1787.13,-401.48 1796.22,-396.04 1785.72,-394.62 1787.13,-401.48"/>
</g>
<!-- [root] provider[&quot;registry.terraform.io/hashicorp/azurerm&quot;] (close)&#45;&gt;[root] azurerm_subnet_network_security_group_association.mtc&#45;sga (expand) -->
<g id="edge20" class="edge">
<title>[root] provider[&quot;registry.terraform.io/hashicorp/azurerm&quot;] (close)&#45;&gt;[root] azurerm_subnet_network_security_group_association.mtc&#45;sga (expand)</title>
<path fill="none" stroke="black" d="M1519.94,-431.7C1510.8,-423.05 1499.59,-412.45 1489.63,-403.03"/>
<polygon fill="black" stroke="black" points="1491.98,-400.43 1482.31,-396.1 1487.17,-405.52 1491.98,-400.43"/>
</g>
<!-- [root] provider[&quot;registry.terraform.io/hashicorp/azurerm&quot;] (close)&#45;&gt;[root] data.azurerm_public_ip.mtc&#45;ip&#45;data (expand) -->
<g id="edge21" class="edge">
<title>[root] provider[&quot;registry.terraform.io/hashicorp/azurerm&quot;] (close)&#45;&gt;[root] data.azurerm_public_ip.mtc&#45;ip&#45;data (expand)</title>
<path fill="none" stroke="black" d="M1433.9,-432.98C1365.23,-422.44 1275.09,-408.61 1203.27,-397.58"/>
<polygon fill="black" stroke="black" points="1203.67,-394.1 1193.26,-396.04 1202.61,-401.02 1203.67,-394.1"/>
</g>
<!-- [root] root -->
<g id="node17" class="node">
<title>[root] root</title>
<ellipse fill="none" stroke="black" cx="805.23" cy="-522" rx="58.49" ry="18"/>
<text text-anchor="middle" x="805.23" y="-518.3" font-family="Times,serif" font-size="14.00">[root] root</text>
</g>
<!-- [root] root&#45;&gt;[root] output.connection_script (expand) -->
<g id="edge22" class="edge">
<title>[root] root&#45;&gt;[root] output.connection_script (expand)</title>
<path fill="none" stroke="black" d="M751.37,-514.79C656.56,-503.86 457.5,-480.9 325.85,-465.72"/>
<polygon fill="black" stroke="black" points="326.03,-462.22 315.7,-464.55 325.23,-469.17 326.03,-462.22"/>
</g>
<!-- [root] root&#45;&gt;[root] output.mtc_ip_address (expand) -->
<g id="edge23" class="edge">
<title>[root] root&#45;&gt;[root] output.mtc_ip_address (expand)</title>
<path fill="none" stroke="black" d="M767.71,-508C737.57,-497.55 694.75,-482.71 660.35,-470.79"/>
<polygon fill="black" stroke="black" points="661.49,-467.48 650.89,-467.52 659.2,-474.1 661.49,-467.48"/>
</g>
<!-- [root] root&#45;&gt;[root] output.public_ip_address (expand) -->
<g id="edge24" class="edge">
<title>[root] root&#45;&gt;[root] output.public_ip_address (expand)</title>
<path fill="none" stroke="black" d="M842.94,-508C873.23,-497.55 916.26,-482.71 950.83,-470.79"/>
<polygon fill="black" stroke="black" points="952.02,-474.08 960.34,-467.52 949.74,-467.47 952.02,-474.08"/>
</g>
<!-- [root] root&#45;&gt;[root] provider[&quot;registry.terraform.io/hashicorp/azurerm&quot;] (close) -->
<g id="edge25" class="edge">
<title>[root] root&#45;&gt;[root] provider[&quot;registry.terraform.io/hashicorp/azurerm&quot;] (close)</title>
<path fill="none" stroke="black" d="M860.33,-515.74C968.03,-505.45 1210.23,-482.32 1373.99,-466.68"/>
<polygon fill="black" stroke="black" points="1374.55,-470.15 1384.18,-465.71 1373.89,-463.18 1374.55,-470.15"/>
</g>
</g>
</svg>
